<?xml version="1.0" encoding="UTF-8" standalone="no"?>
<svg
   xmlns:dc="http://purl.org/dc/elements/1.1/"
   xmlns:cc="http://creativecommons.org/ns#"
   xmlns:rdf="http://www.w3.org/1999/02/22-rdf-syntax-ns#"
   xmlns:svg="http://www.w3.org/2000/svg"
   xmlns="http://www.w3.org/2000/svg"
   viewBox="0 0 1023 998"
   height="998"
   width="1023"
   id="svg1218"
   version="1.1">
  <metadata
     id="metadata1224">
    <rdf:RDF>
      <cc:Work
         rdf:about="">
        <dc:format>image/svg+xml</dc:format>
        <dc:type
           rdf:resource="http://purl.org/dc/dcmitype/StillImage" />
        <dc:title></dc:title>
      </cc:Work>
    </rdf:RDF>
  </metadata>
  <defs
     id="defs1222" />
  <g
     transform="matrix(3.4224048,0,0,3.4224048,12.994228,0.49422803)"
     id="g4582">
    <g
       id="g4525">
      <g
         id="g4687">
        <path
           id="path4521"
           d="m 145.659,0 c 80.45,0 145.66,65.219 145.66,145.66 0,80.441 -65.21,145.659 -145.66,145.659 C 65.209,291.319 0,226.1 0,145.66 0,65.22 65.21,0 145.659,0 Z"
           style="fill:#ffffff" />
      </g>
    </g>
    <g
       id="g4527" />
    <g
       id="g4529" />
    <g
       id="g4531" />
    <g
       id="g4533" />
    <g
       id="g4535" />
    <g
       id="g4537" />
    <g
       id="g4539" />
    <g
       id="g4541" />
    <g
       id="g4543" />
    <g
       id="g4545" />
    <g
       id="g4547" />
    <g
       id="g4549" />
    <g
       id="g4551" />
    <g
       id="g4553" />
    <g
       id="g4555" />
  </g>
  <g
     style="fill:#004654;fill-opacity:1"
     transform="matrix(17.332344,0,0,17.332344,237.09433,224.57747)"
     id="g4683">
    <g
       style="fill:#004654;fill-opacity:1"
       id="g4627">
      <path
         style="fill:#004654;fill-opacity:1"
         d="M 16.878,0.415 C 16.024,-0.15 14.91,-0.137 14.069,0.449 L 1.485,9.214 C 0.814,9.682 0.414,10.447 0.414,11.266 v 9.444 c 0,0.84 0.421,1.623 1.122,2.086 l 12.79,8.455 c 0.836,0.553 1.922,0.553 2.758,0 l 13.044,-8.618 c 0.7,-0.463 1.122,-1.246 1.122,-2.086 v -9.279 c 0,-0.839 -0.421,-1.622 -1.121,-2.085 z M 26.621,10.645 21.8,13.882 17.279,10.594 17.25,4.127 Z M 13.979,4.133 v 6.329 l -4.633,3.24 -4.621,-3.099 z m -10.521,9.589 2.991,2.004 -2.991,2.093 z m 10.6,13.493 -9.331,-6.258 4.661,-3.258 4.67,3.133 z m -1.772,-11.541 3.021,-2.113 3.519,2.313 -3.119,2.095 z m 5.068,11.541 V 20.83 l 4.463,-2.991 4.805,3.159 z m 10.6,-9.288 -3.168,-2.082 3.168,-2.125 z"
         id="path4625" />
    </g>
    <g
       style="fill:#004654;fill-opacity:1"
       id="g4629" />
    <g
       style="fill:#004654;fill-opacity:1"
       id="g4631" />
    <g
       style="fill:#004654;fill-opacity:1"
       id="g4633" />
    <g
       style="fill:#004654;fill-opacity:1"
       id="g4635" />
    <g
       style="fill:#004654;fill-opacity:1"
       id="g4637" />
    <g
       style="fill:#004654;fill-opacity:1"
       id="g4639" />
    <g
       style="fill:#004654;fill-opacity:1"
       id="g4641" />
    <g
       style="fill:#004654;fill-opacity:1"
       id="g4643" />
    <g
       style="fill:#004654;fill-opacity:1"
       id="g4645" />
    <g
       style="fill:#004654;fill-opacity:1"
       id="g4647" />
    <g
       style="fill:#004654;fill-opacity:1"
       id="g4649" />
    <g
       style="fill:#004654;fill-opacity:1"
       id="g4651" />
    <g
       style="fill:#004654;fill-opacity:1"
       id="g4653" />
    <g
       style="fill:#004654;fill-opacity:1"
       id="g4655" />
    <g
       style="fill:#004654;fill-opacity:1"
       id="g4657" />
  </g>
</svg>
