<?xml version="1.0" encoding="UTF-8" standalone="no"?>
<svg
   xmlns:dc="http://purl.org/dc/elements/1.1/"
   xmlns:cc="http://creativecommons.org/ns#"
   xmlns:rdf="http://www.w3.org/1999/02/22-rdf-syntax-ns#"
   xmlns:svg="http://www.w3.org/2000/svg"
   xmlns="http://www.w3.org/2000/svg"
   id="svg4706"
   version="1.1"
   viewBox="0 0 263.79263 263.79263"
   height="263.79263mm"
   width="263.79263mm">
  <defs
     id="defs4700" />
  <metadata
     id="metadata4703">
    <rdf:RDF>
      <cc:Work
         rdf:about="">
        <dc:format>image/svg+xml</dc:format>
        <dc:type
           rdf:resource="http://purl.org/dc/dcmitype/StillImage" />
        <dc:title></dc:title>
      </cc:Work>
    </rdf:RDF>
  </metadata>
  <g
     transform="translate(100.14632,-19.204872)"
     id="layer1">
    <g
       id="g4687"
       transform="matrix(0.90551127,0,0,0.90551127,-100.14632,19.204872)">
      <path
         id="path4521"
         d="m 145.659,0 c 80.45,0 145.66,65.219 145.66,145.66 0,80.441 -65.21,145.659 -145.66,145.659 C 65.209,291.319 0,226.1 0,145.66 0,65.22 65.21,0 145.659,0 Z"
         style="fill:#ffffff" />
      <path
         id="path4523"
         d="m 82.079,200.136 h 27.275 v -90.91 H 82.079 Z m 106.259,-94.059 c -13.237,0 -25.081,4.834 -33.483,15.504 V 108.927 H 127.48 v 91.21 h 27.375 v -49.324 c 0,-10.424 9.55,-20.593 21.512,-20.593 11.962,0 14.912,10.169 14.912,20.338 v 49.57 h 27.275 v -51.6 c -0.001,-35.842 -16.97,-42.451 -30.216,-42.451 z m -92.749,-5.936 c 7.538,0 13.656,-6.118 13.656,-13.656 0,-7.538 -6.118,-13.655 -13.656,-13.655 -7.538,0 -13.656,6.118 -13.656,13.656 0,7.538 6.118,13.655 13.656,13.655 z"
         style="fill:#004654;fill-opacity:1" />
    </g>
  </g>
</svg>
