<?xml version="1.0" encoding="UTF-8" standalone="no"?>
<svg
   xmlns:dc="http://purl.org/dc/elements/1.1/"
   xmlns:cc="http://creativecommons.org/ns#"
   xmlns:rdf="http://www.w3.org/1999/02/22-rdf-syntax-ns#"
   xmlns:svg="http://www.w3.org/2000/svg"
   xmlns="http://www.w3.org/2000/svg"
   id="svg8"
   version="1.1"
   viewBox="0 0 12.7 12.7"
   height="48"
   width="48">
  <defs
     id="defs2" />
  <metadata
     id="metadata5">
    <rdf:RDF>
      <cc:Work
         rdf:about="">
        <dc:format>image/svg+xml</dc:format>
        <dc:type
           rdf:resource="http://purl.org/dc/dcmitype/StillImage" />
        <dc:title></dc:title>
      </cc:Work>
    </rdf:RDF>
  </metadata>
  <g
     transform="translate(0,-284.3)"
     id="layer1">
    <g
       style="fill:#ffffff"
       transform="matrix(0.02477499,0,0,0.02477499,0.00759017,284.30758)"
       id="g936">
      <g
         style="fill:#ffffff"
         id="g870">
	<g
   style="fill:#ffffff"
   id="g868">
		<path
   style="fill:#ffffff"
   d="M 501.801,90.455 H 10.199 C 4.567,90.455 0,95.021 0,100.654 v 268.728 c 0,28.764 23.4,52.165 52.165,52.165 h 407.671 c 28.764,0 52.165,-23.401 52.165,-52.165 V 100.654 C 512,95.021 507.433,90.455 501.801,90.455 Z m -10.199,278.926 c 0,17.516 -14.25,31.766 -31.766,31.766 H 52.165 c -17.516,0 -31.766,-14.251 -31.766,-31.766 V 122.906 l 229.14,187.584 c 1.88,1.538 4.17,2.307 6.461,2.307 2.287,0 4.574,-0.767 6.452,-2.3 L 439.758,165.668 c 4.362,-3.564 5.01,-9.988 1.447,-14.351 -3.565,-4.363 -9.988,-5.011 -14.351,-1.446 L 256.007,289.423 37.879,110.853 h 453.723 z"
   id="path866" />

	</g>

</g>
      <g
         style="fill:#ffffff"
         id="g876">
	<g
   style="fill:#ffffff"
   id="g874">
		<path
   style="fill:#ffffff"
   d="m 469.923,127.859 c -3.563,-4.363 -9.99,-5.011 -14.35,-1.447 l -3.06,2.499 c -4.363,3.564 -5.011,9.988 -1.448,14.351 2.015,2.468 4.948,3.747 7.905,3.747 2.269,0 4.552,-0.754 6.445,-2.3 l 3.06,-2.499 c 4.363,-3.563 5.011,-9.988 1.448,-14.351 z"
   id="path872" />

	</g>

</g>
      <g
         style="fill:#ffffff"
         id="g878">
</g>
      <g
         style="fill:#ffffff"
         id="g880">
</g>
      <g
         style="fill:#ffffff"
         id="g882">
</g>
      <g
         style="fill:#ffffff"
         id="g884">
</g>
      <g
         style="fill:#ffffff"
         id="g886">
</g>
      <g
         style="fill:#ffffff"
         id="g888">
</g>
      <g
         style="fill:#ffffff"
         id="g890">
</g>
      <g
         style="fill:#ffffff"
         id="g892">
</g>
      <g
         style="fill:#ffffff"
         id="g894">
</g>
      <g
         style="fill:#ffffff"
         id="g896">
</g>
      <g
         style="fill:#ffffff"
         id="g898">
</g>
      <g
         style="fill:#ffffff"
         id="g900">
</g>
      <g
         style="fill:#ffffff"
         id="g902">
</g>
      <g
         style="fill:#ffffff"
         id="g904">
</g>
      <g
         style="fill:#ffffff"
         id="g906">
</g>
    </g>
  </g>
</svg>
